<?xml version="1.0" encoding="utf-8"?>
<!-- Uploaded to: SVG Repo, www.svgrepo.com, Generator: SVG Repo Mixer Tools -->
<svg fill="#000000" width="800px" height="800px" viewBox="0 0 32 32" version="1.1" xmlns="http://www.w3.org/2000/svg">
<title>arrow-right-from-bracket</title>
<path d="M10 28.75h-6.75v-25.5h6.75c0.69 0 1.25-0.56 1.25-1.25s-0.56-1.25-1.25-1.25v0h-8c-0.69 0-1.25 0.56-1.25 1.25v0 28c0 0.69 0.56 1.25 1.25 1.25h8c0.69 0 1.25-0.56 1.25-1.25s-0.56-1.25-1.25-1.25v0zM31.218 16.162c0.010-0.060 0.016-0.13 0.016-0.201 0-0.157-0.029-0.308-0.083-0.446l0.003 0.008-0-0.002c-0.062-0.141-0.143-0.261-0.243-0.364l0 0c-0.012-0.013-0.015-0.029-0.027-0.041l-5-5c-0.226-0.227-0.539-0.367-0.885-0.367-0.691 0-1.251 0.56-1.251 1.251 0 0.345 0.14 0.658 0.366 0.884v0l2.866 2.866h-18.981c-0.69 0-1.25 0.56-1.25 1.25s0.56 1.25 1.25 1.25v0h18.982l-2.867 2.865c-0.226 0.226-0.366 0.539-0.366 0.884 0 0.691 0.56 1.251 1.251 1.251 0.345 0 0.658-0.14 0.884-0.366l5-5.001c0.146-0.154 0.253-0.347 0.302-0.562l0.002-0.008c0.012-0.042 0.022-0.093 0.029-0.146l0.001-0.006z"></path>
</svg>