<?xml version="1.0" encoding="iso-8859-1"?>
<!-- Uploaded to: SVG Repo, www.svgrepo.com, Generator: SVG Repo Mixer Tools -->
<!DOCTYPE svg PUBLIC "-//W3C//DTD SVG 1.1//EN" "http://www.w3.org/Graphics/SVG/1.1/DTD/svg11.dtd">
<svg fill="#FFFFFF" height="800px" width="800px" version="1.1" id="Capa_1" xmlns="http://www.w3.org/2000/svg" xmlns:xlink="http://www.w3.org/1999/xlink"
	 viewBox="0 0 58.561 58.561" xml:space="preserve">
<g>
	<path d="M57.688,30.369l-2.85-2.85c-1.128-1.127-3.092-1.127-4.221,0L35.226,42.91l-2.121,7.779l-0.519,0.519
		c-0.388,0.388-0.389,1.014-0.006,1.405l-0.005,0.02l0.019-0.005c0.194,0.191,0.446,0.288,0.699,0.288
		c0.256,0,0.512-0.098,0.707-0.293l0.52-0.52l7.778-2.121l15.39-15.391C58.852,33.427,58.852,31.533,57.688,30.369z M37.535,43.43
		l10.243-10.243l4.243,4.243L41.778,47.673L37.535,43.43z M36.633,45.356l3.22,3.22l-4.428,1.207L36.633,45.356z M56.274,33.177
		l-2.839,2.839l-4.243-4.242l2.839-2.839c0.373-0.373,1.022-0.372,1.394-0.001l2.85,2.85C56.658,32.167,56.658,32.793,56.274,33.177
		z"/>
	<path d="M0,6.877v37.962c5.233-4.049,16.986-13.204,22.449-17.944L0,6.877z"/>
	<path d="M41.922,31.973l6.574-6.574c1.131-1.131,2.634-1.753,4.232-1.753s3.1,0.622,4.23,1.752L58,26.439V6.877L35.587,26.863
		L41.922,31.973z"/>
	<path d="M31.299,28.007L56.376,5.646H1.624l25.076,22.36C27.968,29.139,30.031,29.138,31.299,28.007z"/>
	<path d="M40.5,33.395l-6.426-5.183l-1.444,1.287c-1,0.893-2.315,1.34-3.63,1.34s-2.63-0.447-3.631-1.34l-1.414-1.261
		c-5.521,4.814-17.851,14.41-23.007,18.398C0.966,46.636,0.981,46.646,1,46.646h30.098l1.443-5.293L40.5,33.395z"/>
</g>
</svg>